<svg xmlns="http://www.w3.org/2000/svg" viewBox="0 0 20 20"><title>gamer_score</title><g id="Réteg_2" data-name="Réteg 2">
    <path
          d="M10,0A10,10,0,1,0,20,10,10,10,0,0,0,10,0Zm4.61,5.7a.7.7,0,0,1-.06.24.27.27,0,0,1-.09.13.22.22,0,0,1-.13,0,1,1,0,0,1-.4-.18,4.93,4.93,0,0,0-.73-.42,6.68,6.68,0,0,0-1.11-.41,5.58,5.58,0,0,0-1.52-.19,4.44,4.44,0,0,0-1.89.39A3.92,3.92,0,0,0,7.27,6.36,4.75,4.75,0,0,0,6.38,8a6.25,6.25,0,0,0-.31,2,6.28,6.28,0,0,0,.34,2.16,4.47,4.47,0,0,0,.94,1.59,3.85,3.85,0,0,0,1.43,1,4.65,4.65,0,0,0,1.82.34,4.91,4.91,0,0,0,1.19-.15,4.18,4.18,0,0,0,1.12-.42v-3.7H10a.27.27,0,0,1-.25-.17,1.15,1.15,0,0,1-.09-.52,2.73,2.73,0,0,1,0-.32,1,1,0,0,1,.07-.22.4.4,0,0,1,.1-.12.24.24,0,0,1,.15,0h4a.54.54,0,0,1,.22,0,.82.82,0,0,1,.2.12.54.54,0,0,1,.13.21.83.83,0,0,1,0,.32v4.84a1,1,0,0,1-.09.44.68.68,0,0,1-.37.33c-.19.09-.43.2-.73.31a7.79,7.79,0,0,1-.94.28,7.89,7.89,0,0,1-1,.18,8,8,0,0,1-1,.06,7,7,0,0,1-2.63-.46,5.14,5.14,0,0,1-2-1.3,5.66,5.66,0,0,1-1.23-2,7.8,7.8,0,0,1-.42-2.63,7.68,7.68,0,0,1,.46-2.74A5.77,5.77,0,0,1,6,5.29,5.51,5.51,0,0,1,8,4a6.66,6.66,0,0,1,2.58-.48A6.54,6.54,0,0,1,12,3.6a7.07,7.07,0,0,1,1.13.3,4.47,4.47,0,0,1,.84.37,2.69,2.69,0,0,1,.47.33.66.66,0,0,1,.17.29,1.63,1.63,0,0,1,.05.49A2.88,2.88,0,0,1,14.61,5.7Z"/></g></svg>