<svg xmlns="http://www.w3.org/2000/svg" viewBox="0 0 290 435"><defs><style>.cls-1{fill:#fff;}.cls-2{fill:#939598;}.cls-3{fill:none;stroke:#231f20;stroke-miterlimit:10;}</style></defs><title>gamer_default_icon</title><g id="Réteg_1" data-name="Réteg 1"><rect class="cls-1" width="290" height="435"/></g><g id="Réteg_3" data-name="Réteg 3"><rect class="cls-2" x="29.3" y="101.8" width="231.39" height="231.39" rx="56.73" transform="translate(362.5 72.5) rotate(90)"/></g><g id="Réteg_4" data-name="Réteg 4"><path class="cls-3" d="M145,217.5"/><path class="cls-3" d="M145,217.5"/><path class="cls-3" d="M145,217.5"/><path class="cls-3" d="M145,217.5"/></g><g id="Réteg_6" data-name="Réteg 6"><path class="cls-1" d="M221.82,187.84c-9.65-23.74-25.57-23.48-25.57-23.48H93.75s-15.92-.26-25.57,23.48-22.27,65.46-6.09,81.64c16.17,10.69,66.21-25.74,82.91-25.74s66.57,36.68,82.74,26C243.91,253.55,231.47,211.58,221.82,187.84Zm-97.65,33.7h-13.5V235H94.83v-13.5H81.26V205.76H94.83V192.2h15.84v13.56h13.5Zm49.63-4a15.13,15.13,0,1,1,15.13-15.13A15.13,15.13,0,0,1,173.8,217.5Zm26.45,17.58a9.79,9.79,0,1,1,9.78-9.79A9.78,9.78,0,0,1,200.25,235.08Z"/></g></svg>