<svg id="Réteg_1" data-name="Réteg 1" xmlns="http://www.w3.org/2000/svg" viewBox="0 0 113 102.85"><defs><style>.cls-1,.cls-2,.cls-3,.cls-4{fill:#fff;}.cls-2,.cls-3{isolation:isolate;font-family:Biysk-Regular, Biysk;}.cls-2{font-size:26px;}.cls-3{font-size:9px;letter-spacing:0.3em;}.cls-4{stroke:#231f20;stroke-linecap:round;stroke-miterlimit:10;stroke-width:2px;}</style></defs><title>logoooo</title><circle class="cls-1" cx="55.47" cy="34.4" r="34.4"/><text class="cls-2" transform="translate(0.87 90.43)">StuffPages</text><text class="cls-3" transform="translate(0 101.09)">Keep stuffs online</text><line class="cls-4" x1="50.93" y1="15.74" x2="51.11" y2="50.44"/><line class="cls-4" x1="73.95" y1="50.27" x2="51.11" y2="50.44"/><line class="cls-4" x1="50.93" y1="15.74" x2="67.67" y2="15.74"/><line class="cls-4" x1="73.95" y1="50.27" x2="73.95" y2="22.01"/><line class="cls-4" x1="67.67" y1="15.74" x2="73.95" y2="22.01"/><line class="cls-4" x1="73.95" y1="22.01" x2="67.67" y2="22.01"/><line class="cls-4" x1="67.67" y1="15.74" x2="67.67" y2="22.01"/><line class="cls-4" x1="59.31" y1="50.38" x2="47.27" y2="53.06"/><line class="cls-4" x1="40.07" y1="21" x2="47.27" y2="53.06"/><line class="cls-4" x1="50.93" y1="18.87" x2="40.07" y2="21"/><line class="cls-4" x1="46.97" y1="51.72" x2="43.67" y2="52.8"/><line class="cls-4" x1="36.98" y1="25.46" x2="43.67" y2="52.8"/><line class="cls-4" x1="36.98" y1="25.46" x2="40.78" y2="24.45"/><line class="cls-4" x1="56.34" y1="27.5" x2="68.56" y2="27.5"/><line class="cls-4" x1="56.28" y1="32.8" x2="68.49" y2="32.8"/><line class="cls-4" x1="56.42" y1="38.33" x2="68.65" y2="38.33"/><line class="cls-4" x1="56.42" y1="43.5" x2="68.65" y2="43.5"/></svg>